<?xml version="1.0" encoding="utf-8"?>
<!-- Generator: Adobe Illustrator 19.0.1, SVG Export Plug-In . SVG Version: 6.00 Build 0)  -->
<svg version="1.1" id="Layer_2" xmlns="http://www.w3.org/2000/svg" xmlns:xlink="http://www.w3.org/1999/xlink" x="0px" y="0px"
	 viewBox="203 -247.3 566.9 595.3" style="enable-background:new 203 -247.3 566.9 595.3;" xml:space="preserve">
<path d="M691-42.4c4.3,0.9,8.1,1.7,12.4,3c26.6,7.7,41.5,31.7,38.1,59.1c-3.4,27-25.7,43.3-47.2,45.9c-17.2,2.1-33.4,0.4-47.6-9.8
	c-17.6-12.8-23.6-30.4-21.5-51.4c3-26.6,24.9-42.9,47.6-45.9c0.9,0,1.7-0.4,2.6-0.9C680.8-42.4,685.9-42.4,691-42.4z M644.8,12
	c0.4,4.3,0.4,9,1.3,13.2c0.4,2.1,0.9,4.7,1.3,6.8c4.7,17.6,18.9,28.7,36.8,28.7c17.2,0,31.3-12,35.1-29.6c3-12.8,3-26.2,0-39
	c-3.8-16.3-17.2-27.4-33.8-28.7c-15.5-1.1-30,8.3-36,22.9C646.1-5.6,644.8,3,644.8,12z"/>
<path d="M210.6-40.3c16.8,0,33.4,0,50.2,0c0.4,0.4,0.4,0.9,0.9,0.9c-0.9,0.9-1.7,2.1-2.6,2.1c-2.1,0.4-4.3,0.4-6.4,0.9
	c-4.3,0.9-6.8,3-7.3,7.3c-0.4,1.7-0.4,3.8-0.4,5.6c0,24,0,48.5,0,72.5c0,6.4,1.3,8.1,7.7,8.1c11.5,0,22.7,0,34.3,0
	c5.1,0,9.8-1.3,13.2-5.1c1.7-1.7,2.6-4.7,3.8-6.8c0.4-0.9,0.9-1.7,1.7-2.6c0.4,0,0.9,0.4,0.9,0.4c0,6.4,0,13.2,0,20.2
	c-32.1,0-63.8,0-96,0c0-0.9,0-1.7,0-3c1.3-0.4,2.6-0.4,3.8-0.9c9.4-0.9,11.5-3.4,11.5-12.8c0-12.4,0-24.9,0-37.3c0-12,0-23.6,0-35.5
	c0-7.3-2.1-9.8-9.4-11.1c-2.1-0.4-4.3-0.9-6.4-0.9C210.6-38.6,210.6-39.4,210.6-40.3z"/>
<path d="M769.9-24c-2.6,5.6-6.8,9.4-13.2,8.5c-6-0.4-10.2-5.1-11.1-10.7s2.6-11.1,8.1-12.8c5.6-2.1,11.5,0,14.6,5.1
	c0.4,0.9,1.3,2.1,1.7,3C769.9-28.7,769.9-26.5,769.9-24z M757.9-17.1c5.6,0,9.8-4.7,9.8-10.2s-4.6-10.3-9.8-10.3
	c-5.6,0-9.8,4.7-9.8,10.2C747.6-21.8,752.3-17.1,757.9-17.1z"/>
<path d="M559.5,63.9c-17.6,0-34.7,0-51.9,0c0-0.4-0.4-0.4-0.4-0.9c0.9-0.4,1.7-1.7,2.6-1.7c2.6-0.4,5.6-0.4,8.1-1.3
	c3.4-0.9,4.3-3,3-6c-1.3-2.6-2.6-5.1-4.3-7.3c-6.8-9-13.7-18-21-27.9c-2.6,3-4.7,5.6-7.3,8.1c-6.8,7.7-13.7,15.5-20.6,23.2
	c-4.3,5.1-3,8.5,3.8,9.8c1.7,0.4,3.4,0.4,5.1,0.9c0.9,0.4,1.7,1.3,2.6,2.1c0,0.4-0.4,0.4-0.4,0.9c-13.7,0-27,0-42,0
	c0.9-1.3,1.3-3,2.1-3c8.5-0.9,13.7-6.8,19.3-12.4c10.2-11.1,21-22.7,31.3-33.8c0.4-0.4,0.9-0.9,1.3-1.7C486.1,6.4,481,0,476.3-6.1
	c-5.6-7.3-11.5-14.2-17.2-21.5c-4.3-5.6-9.8-9-16.8-9.4c-0.9,0-1.7-1.3-2.6-2.1c0-0.4,0.4-0.4,0.4-0.9c0.4,0,1.3-0.4,1.7-0.4
	c16.3,0,32.6,0,48.9,0c2.1,0,3.8,0,2.6,3c-1.7,0-3.8,0.4-6,0.4c-7.3,0.4-9.4,3.8-5.6,10.2c3.8,5.6,8.1,11.1,12.4,16.8
	c2.6,3.4,5.1,6.4,8.1,10.2c8.1-9,16.3-18,24.4-27c1.3-1.7,2.1-4.7,1.7-6.4c-0.4-3-3.8-3-6.4-3.4c-1.3,0-2.6,0-3.4-0.4
	c-0.9-0.4-1.7-1.3-2.6-2.1c0-0.4,0.4-0.4,0.4-0.9c14.6,0,28.7,0,43.3,0c0.4,0.4,0.4,0.4,0.9,0.9c-0.9,0.9-1.7,2.1-2.6,2.1
	c-9.8-0.4-16.8,5.6-22.7,12C526-14.6,516.6-3.8,506.8,6.4c5.6,7.3,11.1,14.6,17.2,21.9c6.4,8.1,13.2,16.8,19.7,24.9
	c3.4,4.7,8.1,7.3,14.2,7.7C559.1,60.9,560.4,61.7,559.5,63.9z"/>
<path d="M307.5-39.9c16.8,0,33.4,0,50.2,0c0,0.4,0.4,0.4,0.4,0.9c-0.9,0.9-1.7,1.7-2.6,2.1c-1.7,0.4-3.8,0.4-6,0.9
	c-5.6,1.3-7.7,3.4-8.1,9c0,2.6-0.4,5.6-0.4,8.1c0,16.8,0,33.8,0.4,50.6c0.4,17.2,9,26.2,26.2,27c6,0.4,12.4,0,18-1.3
	c11.5-2.6,18.9-10.7,19.3-23.2c0.9-19.3,0.4-38.5,0.4-57.9c0-9.4-3.4-12-12.8-13.2c-2.1-0.4-3.8,0-3-3.4c13.7,0,27.4,0,41.1,0
	c0,0.4,0.4,0.4,0.4,0.9c-0.9,0.9-1.7,2.1-2.6,2.1c-12.8,1.7-14.2,5.1-14.6,17.2c-0.4,15.9,0,31.3-0.4,47.2c0,8.1-1.3,15.9-5.6,22.7
	c-5.1,8.1-13.2,12.8-22.3,14.6c-12,2.6-24.4,2.6-36.4-0.4c-15.9-4.3-25.7-16.3-26.2-32.6c-0.4-16.3-0.4-32.6-0.4-48.9
	c0-2.1,0-3.8,0-6c0-10.2-2.6-12.8-12.8-13.7C308.4-36.9,306.2-36.9,307.5-39.9z"/>
<path d="M566.4,63c0.9-0.9,1.7-1.7,2.6-2.1c2.6-0.4,5.1-0.9,7.7-1.3c4.7-0.9,6.4-3,7.3-7.7c0-1.7,0.4-3.4,0.4-5.1
	c0-23.2,0-46.3,0-69.4c0-0.4,0-1.3,0-1.7c0-8.5-2.6-11.5-11.5-12.4c-1.7,0-3.8-0.4-5.6-0.4c0-0.9,0-1.7,0-3c17.6,0,35.1,0,52.3,0
	c0.4,2.6,0.4,2.6-1.7,3c-2.6,0.4-4.7,0.4-7.3,0.9c-4.7,0.9-6.8,3.4-7.3,8.1c-0.4,2.1-0.4,4.7-0.4,6.8c0,21.9,0,44.2,0,66
	c0,2.1,0,4.7,0.4,6.8c0.4,4.7,2.1,6.8,6.8,7.7c2.6,0.4,5.6,0.9,8.1,1.3c0.9,0.4,1.7,1.3,2.6,2.1c0,0.4-0.4,0.4-0.4,0.9
	c-17.6,0-34.7,0-52.3,0C566.8,63.9,566.8,63.4,566.4,63z"/>
<path d="M686.8-42.4c4.3,0.9,8.1,1.7,12.4,3c26.6,7.7,41.5,31.7,38.1,59.1c-3.4,27-25.7,43.3-47.2,45.9c-17.2,2.1-33.4,0.4-47.6-9.8
	c-17.6-12.8-23.6-30.4-21.5-51.4c3-26.6,24.9-42.9,47.6-45.9c0.9,0,1.7-0.4,2.6-0.9C676.5-42.4,681.6-42.4,686.8-42.4z M640.4,12
	c0.4,4.3,0.4,9,1.3,13.2c0.4,2.1,0.9,4.7,1.3,6.8c4.7,17.6,18.9,28.7,36.8,28.7c17.2,0,31.3-12,35.1-29.6c3-12.8,3-26.2,0-39
	c-3.8-16.3-17.2-27.4-33.8-28.7c-15.5-1.3-30,8.1-36,22.7C641.7-5.6,640.4,3,640.4,12z"/>
<path d="M206.3-40.3c16.8,0,33.4,0,50.2,0c0.4,0.4,0.4,0.9,0.9,0.9c-0.9,0.9-1.7,2.1-2.6,2.1c-2.1,0.4-4.3,0.4-6.4,0.9
	c-4.3,0.9-6.8,3-7.3,7.3c-0.4,1.7-0.4,3.8-0.4,5.6c0,24,0,48.5,0,72.5c0,6.4,1.3,8.1,7.7,8.1c11.5,0,22.7,0,34.3,0
	c5.1,0,9.8-1.3,13.2-5.1c1.7-1.7,2.6-4.7,3.8-6.8c0.4-0.9,0.9-1.7,1.7-2.6c0.4,0,0.9,0.4,0.9,0.4c0,6.4,0,13.2,0,20.2
	c-32.1,0-63.8,0-96,0c0-0.9,0-1.7,0-3c1.3-0.4,2.6-0.4,3.8-0.9c9.4-0.9,11.5-3.4,11.5-12.8c0-12.4,0-24.9,0-37.3c0-12,0-23.6,0-35.5
	c0-7.3-2.1-9.8-9.4-11.1c-2.1-0.4-4.3-0.9-6.4-0.9C206.3-38.6,206.3-39.4,206.3-40.3z"/>
<path d="M555.1,63.9c-17.6,0-34.7,0-51.9,0c0-0.4-0.4-0.4-0.4-0.9c0.9-0.4,1.7-1.7,2.6-1.7c2.6-0.4,5.6-0.4,8.1-1.3
	c3.4-0.9,4.3-3,3-6c-1.3-2.6-2.6-5.1-4.3-7.3c-6.8-9-13.7-18-21-27.9c-2.6,3-4.7,5.6-7.3,8.1c-6.8,7.7-13.7,15.5-20.6,23.2
	c-4.3,5.1-3,8.5,3.8,9.8c1.7,0.4,3.4,0.4,5.1,0.9c0.9,0.4,1.7,1.3,2.6,2.1c0,0.4-0.4,0.4-0.4,0.9c-13.7,0-27,0-42,0
	c0.9-1.3,1.3-3,2.1-3c8.5-0.9,13.7-6.8,19.3-12.4c10.2-11.1,21-22.7,31.3-33.8c0.4-0.4,0.9-0.9,1.3-1.7c-4.7-6.4-9.8-12.8-14.6-18.9
	c-5.6-7.3-11.5-14.2-17.2-21.5c-4.3-5.6-9.8-9-16.8-9.4c-0.9,0-1.7-1.3-2.6-2.1c0-0.4,0.4-0.4,0.4-0.9c0.4,0,1.3-0.4,1.7-0.4
	c16.3,0,32.6,0,48.9,0c2.1,0,3.8,0,2.6,3c-1.7,0-3.8,0.4-6,0.4c-7.3,0.4-9.4,3.8-5.6,10.2c3.8,5.6,8.1,11.1,12.4,16.8
	c2.6,3.4,5.1,6.4,8.1,10.2c8.1-9,16.3-18,24.4-27c1.3-1.7,2.1-4.7,1.7-6.4c-0.4-3-3.8-3-6.4-3.4c-1.3,0-2.6,0-3.4-0.4
	c-0.8-0.4-1.7-1.3-2.6-2.1c0-0.4,0.4-0.4,0.4-0.9c14.6,0,28.7,0,43.3,0c0.4,0.4,0.4,0.4,0.9,0.9c-0.9,0.9-1.7,2.1-2.6,2.1
	c-9.8-0.4-16.8,5.6-22.7,12c-9.1,10.3-18.6,21.1-28.4,31.3c5.6,7.3,11.1,14.6,17.2,21.9c6.4,8.1,13.2,16.8,19.7,24.9
	c3.4,4.7,8.1,7.3,14.2,7.7C554.7,60.9,556,61.7,555.1,63.9z"/>
<path d="M303.1-39.9c16.8,0,33.4,0,50.2,0c0,0.4,0.4,0.4,0.4,0.9c-0.9,0.9-1.7,1.7-2.6,2.1c-1.7,0.4-3.8,0.4-6,0.9
	c-5.6,1.3-7.7,3.4-8.1,9c0,2.6-0.4,5.6-0.4,8.1c0,16.8,0,33.8,0.4,50.6c0.4,17.2,9,26.2,26.2,27c6,0.4,12.4,0,18-1.3
	c11.5-2.6,18.9-10.7,19.3-23.2c0.9-19.3,0.4-38.5,0.4-57.9c0-9.4-3.4-12-12.8-13.2c-2.1-0.4-3.8,0-3-3.4c13.7,0,27.4,0,41.1,0
	c0,0.4,0.4,0.4,0.4,0.9c-0.9,0.9-1.7,2.1-2.6,2.1c-12.8,1.7-14.2,5.1-14.6,17.2c-0.4,15.9,0,31.3-0.4,47.2c0,8.1-1.3,15.9-5.6,22.7
	c-5.1,8.1-13.2,12.8-22.3,14.6c-12,2.6-24.4,2.6-36.4-0.4c-15.9-4.3-25.7-16.3-26.2-32.6C318,15,318-1.3,318-17.6c0-2.1,0-3.8,0-6
	c0-10.2-2.6-12.8-12.8-13.7C304-36.9,301.9-36.9,303.1-39.9z"/>
<path d="M562.1,63c0.9-0.9,1.7-1.7,2.6-2.1c2.6-0.4,5.1-0.9,7.7-1.3c4.7-0.9,6.4-3,7.3-7.7c0-1.7,0.4-3.4,0.4-5.1
	c0-23.2,0-46.3,0-69.4c0-0.4,0-1.3,0-1.7c0-8.5-2.6-11.5-11.5-12.4c-1.7,0-3.8-0.4-5.6-0.4c0-0.9,0-1.7,0-3c17.6,0,35.1,0,52.3,0
	c0.4,2.6,0.4,2.6-1.7,3c-2.6,0.4-4.7,0.4-7.3,0.9c-4.7,0.9-6.8,3.4-7.3,8.1c-0.4,2.1-0.4,4.7-0.4,6.8c0,21.9,0,44.2,0,66
	c0,2.1,0,4.7,0.4,6.8c0.4,4.7,2.1,6.8,6.8,7.7c2.6,0.4,5.6,0.9,8.1,1.3c0.9,0.4,1.7,1.3,2.6,2.1c0,0.4-0.4,0.4-0.4,0.9
	c-17.6,0-34.7,0-52.3,0C562.5,63.9,562.5,63.4,562.1,63z"/>
<path d="M755.3-25.7c0,1.3,0,2.1,0,3.4c0,0.9-0.4,1.3-0.9,1.7c-0.4-0.4-1.3-1.3-1.3-1.7c0-3.8,0-8.1,0-12c4.7-1.3,9-0.9,10.2,1.3
	c1.3,3,0,5.1-3,6.4c1.3,1.7,2.1,3.4,3,5.1c-0.4,0.4-0.4,0.4-0.9,0.9c-2.1-2.1-4.3-4.3-6-6.4C755.7-26.1,755.3-26.1,755.3-25.7z
	 M755.3-27.8c2.1-0.4,3.8-0.9,5.1-1.7v-1.7c-1.7-0.4-3.4-0.9-5.1-1.3C755.3-31.2,755.3-30,755.3-27.8z"/>
</svg>
