<?xml version="1.0" encoding="utf-8"?>
<!-- Generator: Adobe Illustrator 19.0.1, SVG Export Plug-In . SVG Version: 6.00 Build 0)  -->
<svg version="1.1" id="Layer_2" xmlns="http://www.w3.org/2000/svg" xmlns:xlink="http://www.w3.org/1999/xlink" x="0px" y="0px"
	 viewBox="203 -247.3 566.9 595.3" style="enable-background:new 203 -247.3 566.9 595.3;" xml:space="preserve">
<g>
	<path d="M255.2-1.4c1.5-10.1,3-20.2,4.4-30.3c2.7-19.3,5.4-38.6,8.1-57.8c0.9-6.2,5.4-10,10.4-9.3c5.9,0.9,9.2,5.6,8.2,12.3
		c-3.5,25.3-7.2,50.6-10.7,76c-0.1,0.9,0,1.8,1,3.2c1.1-2,2.3-4,3.2-6c13.1-28.6,26.2-57.3,39.3-85.9c1.2-2.7,2.9-5.3,4.3-8
		c3-5.9,8.2-8.4,12.9-6.1c5.1,2.4,7,8,4.3,14.3c-4.1,9.3-8.3,18.4-12.6,27.6C316.9-47.4,305.7-23.2,294.3,1
		c-5.8,12.2-9.4,13-19.7,5.8c-2.1,4.3-3.2,9.4-6.4,12.6c-4.2,4.2-9.3,1.1-13.4-1.9c-6.3,16.4,5,43.9,21.9,53.4
		c19.4,11,45.9,8.2,57.3-6.1c-3.6-0.6-6.9-1-10.1-1.8c-16.9-4.1-28.6-18.5-29.7-35.6c-0.9-15.3,8.7-33.4,27.6-38.9
		c15.4-4.5,34.1,1.3,43.1,15c2,3.1,3.3,7.6,2.7,11.1c-0.4,2.6-4.1,5.4-6.9,6.4c-4.1,1.5-7.7-0.4-10.2-4.3c-4-6.3-9.3-10.5-17.3-10.5
		c-9.4,0.1-17.9,6.5-19.7,15.2c-2,9.2,2.8,17.8,12,21.6c9.4,4,17.6,1.4,23.5-6.9c1.7-2.4,4-5,6.5-5.9c7.9-2.7,14.3,4,12.3,13
		c-5.5,25.1-20.3,42.8-44.8,50.6c-25.1,8-48.5,3-67.9-15.4c-12.9-12.3-20.3-27.8-20.6-45.8c-0.6-29-0.4-58-0.4-87
		c0-9.4,6.1-14.4,13.3-11.2c4.9,2.2,5.8,6.8,5.8,11.5c0.1,15.5,0.2,31,0.2,46.5c0,2.1,0,4.2,0,6.2C254.2-1.5,254.6-1.5,255.2-1.4z"
		/>
	<g>
		<path d="M432.2,54.2c5.1,0,10.7,0.8,16-0.2c14.5-2.6,23.2-18.4,19.7-34.3c-2-8.8-5.9-16.1-14.9-19.5c-13.9-5.3-25.4,1.9-26.1,16.7
			c-0.6,14.3-0.3,28.6-0.3,43c0,7.7,0.3,15.3,0,22.9c-0.2,5.4,0.8,10.1,6.6,13.9c-13.3,0-25.4,0-38.6,0c5.8-3.8,6.1-8.9,6-14.3
			c-0.1-26,0.1-52-0.4-78c-0.1-5.1-2.8-10.1-4.7-16.2c9.2,0,19.3,0,30.1,0c0.1,0.2,0.5,1.9,1.1,4.1c10-4.5,20.2-6.2,30.9-5.8
			c19.8,0.9,36.1,14.6,38.1,32.4c2.6,22.6-7.9,39.4-28.6,45.3c-4.9,1.4-10.1,2.1-15.2,2.4C441.2,67.1,436.2,63.6,432.2,54.2z"/>
		<path d="M612.7-13.6c15.6,0.1,28.2,4.5,38.6,14.1c16.6,15.2,15.9,40.3-1.3,54.9c-19.3,16.3-50.1,17-69.4,1.6
			c-23.6-18.9-20.1-51,7.1-64.7C595.9-12,604.7-13.9,612.7-13.6z M630.1,7.7c-4.1-7.4-11.2-9.4-20.3-8.2
			c-8.5,1.1-13.3,7.1-15.8,14.8c-4.3,13.3-1.1,25.3,8.4,35.3c9.2,9.5,23.5,7,30-4.5C637,36.3,633.3,13.3,630.1,7.7z"/>
		<path d="M732.5-50.7c-4.1,5.5-7.7,10.5-11.3,15.4c-0.8-0.3-1.2-0.3-1.4-0.6c-8.9-9.4-17.9-5.8-19.4,8.1c-0.6,5.4-0.1,11-0.1,16.7
			c7.2,0,14,0,21.3,0c0,4.6,0,9,0,12.8C714.8,0.8,708-0.2,701.7-1c-0.9,1-1.4,1.3-1.4,1.6c-0.1,18.3-0.3,36.7,0.1,55
			c0.1,2.9,2.6,5.9,4.1,8.9c-11.4,0-23.5,0-36.4,0c6-4.2,5.9-10,5.8-15.9c-0.1-16.3,0-32.4,0-48.9c-2.8-0.2-4.9-0.4-9-0.7
			c10.9-7.3,8.7-17.9,9.8-27.2c1.4-12.5,8.9-18.9,20-22.1C704.3-53,719.7-53.2,732.5-50.7z"/>
		<path d="M501.3-11.8c10.1,0,20.2,0,31,0c0.1,0.3,0.4,1.8,0.7,3.2c4.4-1.5,8.8-3.6,13.3-4.5c4.3-0.9,8.9-0.7,13.6-0.9
			c0,5.7,0,10.2,0,15.2c-3.3-0.7-6.3-1.5-9.4-2c-9.7-1.5-16,2.8-16.7,12.7c-1.2,14.7-0.6,29.7-0.1,44.5c0.1,2.7,3,5.3,4.8,8.2
			c-11.8,0-24,0-34.7,0c1-4.9,3-10,3.1-15.1c0.4-14.8,0-29.8,0-44.7c0-5.8-1-11.1-6.1-14.7C501-10.6,501.2-11.2,501.3-11.8z"/>
		<path d="M733.3,64.5c6.5-3.8,6-9.3,6-14.6c0-14.9,0.3-29.8-0.3-44.6c-0.2-5.3-2.4-10.6-3.8-16.9c9,0,19.5,0,31.1,0
			c0,11.3,0,24,0,36.8c0,9.2-0.3,18.3,0.3,27.4c0.2,4,2.1,7.8,3.3,11.9C759.1,64.5,746.9,64.5,733.3,64.5z"/>
		<path d="M533-49.1c5.3-1,10.6-2.9,15.9-2.9c7.4,0,10.3,4.1,10.5,11.4c0.2,7.1,0.6,14.3,0.9,21.7c-3.7,0-8.3,0-12.6,0
			c0-7.7,0.4-14.9-0.3-22.2c-0.2-1.9-3.5-4.3-5.8-4.8c-1.5-0.3-5,2.5-5.2,4c-0.6,7.5-0.3,15-0.3,23c-4,0-9,0-13.1,0
			c0-7.6,0.5-14.7-0.3-21.8c-0.2-2-4-4.7-6.2-4.9c-1.6-0.2-5,3.2-5.2,5.2c-0.7,6.9-0.3,14-0.3,21.4c-3.5,0-7.9,0-12.5,0
			c0-10.6,0-21.2,0-31.7c6.7-0.5,14.4-1.6,21.9-1.4C524.9-52.2,529.1-50.2,533-49.1z"/>
		<path d="M446.6-17.7c-12.9,0-22-7.7-22.2-17.5c-0.2-7.5,4.5-11.5,10.2-14.6c6.9-3.8,14.3-3.7,21.5-0.5
			c7.4,3.2,11.6,10.1,10.7,17.2c-0.9,7.7-7.7,14.1-16.4,15.2C449-17.8,447.4-17.8,446.6-17.7z M454.7-31.7c0.1-7-1.7-12-6.7-14.4
			c-1.9-0.9-5.8,0.3-7.5,1.9c-4.3,4-4.2,9.3-1.9,14.3c1.7,4,4.3,7.7,9.4,6.6C453.2-24.3,454.4-28.6,454.7-31.7z"/>
		<path d="M588.8-51c3.1-0.2,7-0.4,12.2-0.6c0,10.7,0,21.5,0,32.5c-7.4,0.5-15.9,1.3-24.3,1.3c-7.7,0-11.1-3.5-11.8-11.2
			c-0.4-4-0.1-8-0.4-12c-0.2-3.3-0.7-6.6-1-10.3c1.6,0,3.7,0.1,5.8,0c2.1-0.1,4.1-0.3,6.8-0.6c0,6.9-0.1,13.8,0,20.6
			c0.1,4.3,2,7.8,6.7,7.5c2.1-0.2,5.5-2.6,5.7-4.3C589.1-35.5,588.8-43.1,588.8-51z"/>
		<path d="M628.6-46.4c2.7-2,5.3-5.3,8.1-5.7c6.7-0.8,13.9-1.7,19.7,2.9c1.5,1.1,2.1,4,2.4,6c0.6,4.3,0.2,8.8,0.9,13
			c0.6,3,2.6,5.8,4.5,8.4c-0.6,5.2-4.9,4-8.8,3.7c-4.1-0.4-6.8-2.5-7.2-6.8c-0.3-3.3-0.5-6.7-0.7-10.8c-4.9,2-11.1,0.9-11.9,7.6
			c-0.6,4,3.4,5.8,10,5c-2.6,5.7-5.5,6.9-12.7,5.2c-5.9-1.3-9.1-5.1-9.3-10.8c-0.2-6,3.7-8.3,8.9-9.3c3.6-0.7,7.3-0.9,10.7-1.9
			c1.7-0.5,2.9-2.5,4.4-3.7c-1.7-1.2-3.5-3.4-5.2-3.4c-4.4-0.1-8.9,0.9-13.3,1.3C629.2-45.7,628.9-46.1,628.6-46.4z"/>
		<path d="M412.3-51.4c2.7,0.2,5.2,0.3,8.3,0.5c0.1,1.8,0.2,3.5,0.3,5.3c-3.1-0.3-5.8-0.6-8.5-0.8c0,9.4,0,18.2,0,27.4
			c-3.9,0-8.4,0-12.7,0c0.2-4.6,0.9-9.4,0.6-14.2c-0.3-4.5,1.7-9.6-2-14.2c0.7-2.1,1.9-4.8,2.3-7.7c0.9-7.6,3.4-10.6,10.7-11.9
			c2.1-0.4,4.2-0.4,6.3-0.4c2.3,0,4.4,0.2,7.7,0.3c-1.6,2.6-2.7,4.4-3.9,6.2C412.9-63.8,410.9-61.7,412.3-51.4z"/>
		<path d="M619.4-18.8c-3.7,0-8.4,0-12.5,0c0-16.1,0-32,0-48.1c3.1-0.2,7.2-0.4,12.5-0.7C619.4-51.4,619.4-35.1,619.4-18.8z"/>
		<path d="M751.8-43.1c6.8,0,12.5,5.7,12.4,12.3c-0.1,6.5-5.6,12-12.1,12.1c-7.3,0.2-13-5.3-12.9-12.4
			C739.2-37.8,744.7-43.1,751.8-43.1z"/>
		<path d="M471-50.9c6.7-0.5,14.4-0.9,22.4-1.5c0.2,2,0.4,3.8,0.6,5.3c-3.3,0.8-7.5,0.5-8.9,2.4c-1.8,2.4-1.9,6.3-2.1,9.7
			c-0.3,5.2-0.1,10.5-0.1,16.1c-3.2,0-7.7,0-11.2,0c0-5.5,0.1-10.8,0-16.2C471.6-40.4,471.3-45.6,471-50.9z"/>
	</g>
</g>
</svg>
