<?xml version="1.0" encoding="utf-8"?>
<!-- Generator: Adobe Illustrator 19.0.1, SVG Export Plug-In . SVG Version: 6.00 Build 0)  -->
<svg version="1.1" id="Layer_2" xmlns="http://www.w3.org/2000/svg" xmlns:xlink="http://www.w3.org/1999/xlink" x="0px" y="0px"
	 viewBox="203 -247.3 566.9 595.3" style="enable-background:new 203 -247.3 566.9 595.3;" xml:space="preserve">
<g>
	<path d="M611.6,61.9c-8.2,0-16.1,0-24.4,0c0-4.8,0-9.3,0-14.8c-1.3,1.1-2,1.4-2.3,2c-19.1,21.7-49.4,19.4-64.7-5.2
		c-7.7-12.3-9.7-26-8.3-40.3c0.6-6.3,1.5-12.7,3.3-18.8c8.4-28.8,44.4-40.2,66.6-17.3c0.5,0.5,0.6,1.2,1,1.7
		c0.5-0.2,0.9-0.3,1.3-0.5c0-8.5,0-17,0-25.5c0-8.4,0-16.7,0-25.3c9.5,0,18.4,0,27.7,0C611.6-34.2,611.6,13.6,611.6,61.9z M539,6.5
		c0.7,7.1,0.9,12.3,1.7,17.2c1.7,10.6,9.7,18.6,18.9,19.2c10.4,0.8,18.6-4.9,22-16c3.7-12.1,3.4-24.4-0.5-36.5
		c-3-9-10.2-14.1-18.7-14.3c-9-0.2-16.6,4.6-19.8,13.6C540.5-4.3,539.9,2.1,539,6.5z"/>
	<path d="M336.5-3.9c6.4,11,12.7,21.9,18.9,32.7c6.2,10.9,12.4,21.6,19.1,33.3c-9.5,0-18.3,0.1-27.1-0.2c-1.2,0-2.6-1.8-3.3-3.1
		c-7.4-12.6-14.7-25.3-22-38c-0.9-1.6-2-3.3-3.4-5.5c-3.8,4.1-7.5,7.9-10.9,11.9c-0.9,1.1-0.9,3-0.9,4.6c-0.1,9.9-0.1,19.8-0.1,30
		c-9.5,0-18.6,0-28,0c0-47.8,0-95.6,0-143.7c9.3,0,18.4,0,27.9,0c0,25,0,49.9,0,76.3c3.7-4.1,6.4-7.2,9.1-10.4
		c6.9-8,13.7-16,20.7-24c1-1.2,2.5-2.7,3.8-2.7c10.3-0.2,20.7-0.2,32.1-0.2C360-29.3,348.3-16.7,336.5-3.9z"/>
	<path d="M440.1-44.8c30.9,0.2,53.5,23.4,53,54.8s-22.6,54.8-53.4,53.9c-35.2-1-53.4-21.7-53.1-55.5C386.9-21.7,405.8-44,440.1-44.8
		z M414.2,8.8c0.6,5.1,0.8,9.1,1.6,13.1c2.6,11.8,11.2,19.5,22,20c11.8,0.5,20.4-5.6,24.1-17.8c3-9.8,3-19.9-0.2-29.7
		c-3.5-10.9-12.3-17.3-22.8-17.2s-19,6.4-22.3,17.6C415.4-0.5,415,4.7,414.2,8.8z"/>
	<path d="M642.7,61.8c0-34.7,0-69.3,0-104.2c9.1,0,18.2,0,27.6,0c0,34.7,0,69.2,0,104.2C661.2,61.8,652.1,61.8,642.7,61.8z"/>
	<path d="M279.5,150.8c0,6.5,0,12.1,0,18c-3.5,0-6.4,0-9.7,0c0-17.3,0-34.4,0-51.9c3,0,5.9,0,9.2,0c0.3,1.1,0.6,2.4,1,4
		c0.5-0.2,0.9-0.4,1.2-0.6c8-7.2,18.2-5.2,22.4,4.6c3.1,7.3,3,14.8-0.2,22C299.1,156.5,290.2,158.1,279.5,150.8z M296.2,136
		c-0.4-2.3-0.5-4.6-1.2-6.8c-1.3-4.1-4.1-6.2-8.7-5.6c-5.2,0.7-7.7,6.6-6.7,15.1c0.8,6.4,4.2,9.6,9.5,9
		C293.6,147.1,295.9,143.2,296.2,136z"/>
	<path d="M623.7,117c0.2,1.2,0.4,2.6,0.5,3c4.3-1.5,8.3-3.9,12.3-4.1c7.4-0.4,11.5,4.6,11.9,13.9c0.3,8,0.1,16.2,0.1,24.8
		c-3.4,0-6.5,0-10.2,0c0-7.1,0-14.1,0-21.2c-0.1-7.5-1.4-9.7-6.1-9.7c-5.2-0.1-8,3.4-8,10.2c-0.1,6.9,0,13.7,0,20.9
		c-3.4,0-6.3,0-9.6,0c0-12.5,0-24.9,0-37.7C617.4,117,620.4,117,623.7,117z"/>
	<path d="M667.3,128.3c-2.9-0.3-5.5-0.6-8.1-0.9c1.2-6.7,4-10.1,10.2-10.9c4.1-0.5,8.5-0.3,12.7,0.4c3.7,0.7,6.5,3.4,6.8,7.6
		c0.4,5.4,0.2,10.9,0.6,16.3c0.2,4.5,0.9,9,1.3,13.9c-3.2-0.1-7.8,2.8-9.6-4.1c-4.8,3.7-9.5,6.8-15.7,4.7c-4.8-1.6-8-5.4-8-10.2
		c0.1-4.9,2.4-8.6,7.2-10.2c3.9-1.3,8-1.9,11.9-3.2c1.2-0.4,2.8-2.5,2.6-3.5c-0.3-1.6-1.7-3.9-3-4.2
		C672.3,122.9,668.5,123.4,667.3,128.3z M679.1,138.6c-3.1,0.7-6.1,1-8.7,2.1c-1.2,0.5-2.5,2.6-2.5,4c0,1,2,2.6,3.3,2.8
		C676.7,148.9,679.8,145.7,679.1,138.6z"/>
	<path d="M490.8,127.3c-5,0.5-9,2-12.5-2.6c-1.1-1.5-5.5-0.7-8.4-0.5c-0.6,0-1.8,1.8-1.6,2.5c0.2,1,1.3,2.3,2.3,2.7
		c3.9,1.2,8,2,11.9,3.2c6.7,2.1,9.8,5.7,9.6,10.9c-0.2,5.7-5,10.5-11.5,11.8c-9.9,1.9-17.3-0.5-21.3-7.2c-0.9-1.3-1.3-2.9-2.3-5
		c3.5-0.3,6.4-0.5,9.6-0.9c1.9,5.7,6.5,6.3,11.4,5.3c1.6-0.3,2.8-2.2,4.1-3.4c-1.2-1.2-2.2-2.8-3.6-3.3c-4.1-1.4-8.3-2-12.3-3.4
		c-5.3-1.7-8.5-5.9-8.3-10.4c0.2-4.9,4.1-9.1,9.7-10.5c10.1-2.3,17.6-0.2,21.2,5.9C489.7,123.9,490.1,125.4,490.8,127.3z"/>
	<path d="M451.2,138.6c-5.1,0-9.1,0-13.2,0c-3.9,0-7.9,0-11.8,0c-0.9,4.5,0.9,7.3,4.4,8.7c4.1,1.5,7.8,0.6,9.5-4.1
		c3.2,0.2,6.1,0.5,9,0.7c-2.2,7.7-7.4,11.9-15,12.1c-7.9,0.3-15.2-4.2-16.7-11.9c-1.1-5.3-1.1-11.2,0-16.5c1.5-7.3,8.4-11.9,15.7-12
		c7.8-0.1,14.1,4.3,16.3,11.9C450.2,130.8,450.5,134.3,451.2,138.6z M440.5,132.5c0-6.1-2.7-9.1-7.7-8.8c-4.5,0.2-7,3.6-6.4,8.8
		C430.9,132.5,435.5,132.5,440.5,132.5z"/>
	<path d="M499.6,142.9c4.8-0.2,8.6-2,12.2,2.9c1.5,2,7.2,0.9,10.9,0.9c0.5,0,1.8-2.3,1.6-3.1c-0.4-1.2-1.7-2.3-3-2.7
		c-3.9-1.2-8-2-11.9-3.2c-6.1-1.9-9.5-6-9.2-10.7c0.3-5.2,4.4-9.2,10.7-10.5c10.4-2.2,17.9,0.5,21.2,7.8c0.4,0.9,0.5,1.9,0.9,3.1
		c-3.1,0.4-5.9,0.7-9.3,1.1c-1.4-5.3-5.8-5.2-10.2-4.5c-1.2,0.2-2.2,1.6-3.3,2.5c0.9,1,1.6,2.7,2.7,3c4.1,1.3,8.2,2.2,12.3,3.3
		c5.2,1.4,8.7,4.6,9.3,10.2c0.5,4.5-3.4,9.5-8.6,11.6c-9.1,3.7-19.8,1-24.3-6.2C500.8,146.7,500.4,145,499.6,142.9z"/>
	<path d="M344.2,135.3c0.2-11.3,8.5-19.8,19.3-19.6c10.8,0.2,18.9,8.8,18.8,20.1c-0.1,11.2-8.5,20.7-18.8,20.1
		C351.7,155.2,344.8,149.2,344.2,135.3z M354.3,135.8c0,8,3,12,9.1,12c5-0.1,8.4-3.6,8.9-9.2c0.7-8.4-2-14-7.2-14.8
		c-0.3-0.1-0.6,0-1-0.1C357.7,123.2,354.3,127.4,354.3,135.8z"/>
	<path d="M584.9,115.7c10.6,0,19,8.6,19.2,19.8c0.2,11-8.7,20.5-19.1,20.5c-11.1,0-19.6-9-19.4-20.6
		C565.8,124.3,574.2,115.7,584.9,115.7z M594.1,134.5c-0.1-0.5-0.1-2.1-0.5-3.7c-1.2-4.3-3.7-7.2-8.7-7.3c-5.1-0.1-7.9,3-8.5,7.3
		c-0.5,3.9-0.2,8.1,0.9,12c0.9,3.4,3.9,5,7.7,4.9C590.8,147.6,594.1,143.5,594.1,134.5z"/>
	<path d="M393.4,154.6c0-9.9,0-19.5,0-29.4c-1.7-0.3-3.1-0.5-4.8-0.9c0-2.2,0-4.4,0-7c1.2-0.3,2.7-0.6,4.3-0.9
		c0.9-13.8,6.9-16.8,20-13.1c0.1,3.8,0.2,7.1-5.5,6.6c-5-0.4-3.4,3.6-3.8,6.6c2.5,0.2,4.5,0.4,7,0.6c0,2.5,0,4.8,0,7.4
		c-2.2,0.2-4.1,0.3-6.6,0.5c0,9.8,0,19.5,0,29.8C400.1,154.6,397,154.6,393.4,154.6z"/>
	<path d="M642.8-82.1c9.1,0,18.1,0,27.3,0c0,8,0,15.9,0,24c-9.1,0-18,0-27.3,0C642.8-66,642.8-73.8,642.8-82.1z"/>
	<path d="M703.2,102.8c3.2,0,6.1,0,9.4,0c0,17.2,0,34.2,0,51.7c-3,0-5.9,0-9.4,0C703.2,137.5,703.2,120.4,703.2,102.8z"/>
	<path d="M316.2,116.8c3.3,0,6.2,0,9.3,0c0.2,1.3,0.4,2.6,0.6,4.3c3-3,5.5-6.9,10.4-4.8c6.6,2.7,0.3,6.5,1.3,9.8
		c-9.1-1.1-11.6,1-11.9,9.9c-0.2,6.1,0,12.2,0,18.7c-3.4,0-6.3,0-9.7,0C316.2,142.1,316.2,129.7,316.2,116.8z"/>
	<path d="M545.9,116.9c3.1,0,6.1,0,9.3,0c0,12.5,0,24.9,0,37.7c-3,0-6,0-9.3,0C545.9,142,545.9,129.6,545.9,116.9z"/>
	<path d="M545.9,102.8c3.1,0,6,0,9.3,0c0,2.7,0,5.5,0,8.4c-3,0-6,0-9.3,0C545.9,108.5,545.9,105.8,545.9,102.8z"/>
</g>
</svg>
