<?xml version="1.0" encoding="utf-8"?>
<!-- Generator: Adobe Illustrator 19.0.1, SVG Export Plug-In . SVG Version: 6.00 Build 0)  -->
<svg version="1.1" id="Layer_1" xmlns="http://www.w3.org/2000/svg" xmlns:xlink="http://www.w3.org/1999/xlink" x="0px" y="0px"
	 viewBox="48 -77.1 255.1 255.1" style="enable-background:new 48 -77.1 255.1 255.1;" xml:space="preserve">
<path d="M109.3,26.7c0,0.7,0,1.3,0,1.9c0,7.2,0,14.4,0,21.6c0,1,0,1.6-1.4,1.4c-1.8-0.3-3.6-0.1-5.4-0.1c0-16.9,0-33.9,0-51.1
	c0.4,0,0.8,0,1.2,0c5.6,0,11.3-0.1,16.9,0c3.2,0.1,6.4,0.6,9.3,2.2c4.2,2.3,5.5,6.9,4.9,11c-1.1,6.8-6,9.8-12,11.7
	c-0.9,0.3-1.9,0.5-3.1,0.8c6.8,8.6,13.5,17.1,20.1,25.4c-1.8,0-3.7-0.2-5.6,0.1c-2.4,0.4-3.6-0.7-5-2.5c-4.5-6.1-9.3-12.1-14-18.1
	c-0.8-1.1-1.8-2-2.6-3.1C111.9,26.5,110.8,26.4,109.3,26.7z M109.3,23.8c2.9-0.1,5.6-0.1,8.3-0.4c5.3-0.7,11-4.6,10.5-11.7
	c-0.3-3.4-2.4-6.5-5.6-7.6c-2.4-0.8-4.8-0.8-7.3-0.8c-2,0-3.9,0-5.9,0C109.3,10.1,109.3,16.8,109.3,23.8z"/>
<path d="M235.2,0.4c-1.1,2.4-2.1,4.7-3.1,6.9c-3.7,8.5-7.4,17.1-11,25.6c-2.5,5.9-4.8,11.9-7.2,17.9c-0.3,0.7-0.5,0.5-1.1,0.6
	c-2.2,0.3-2.8-1-3.5-2.7c-3-7.1-6.3-14.2-9.4-21.3c-3.5-7.8-6.9-15.7-10.3-23.5c-1.6-3.7-3.3-7.4-5-11.1c-1.5-3.1-3.8-5.2-7.4-5.6
	c-0.2,0-0.7-0.7-0.6-0.9c0.2-0.4,0.6-0.8,1-0.9c2.6-0.2,5.1,0.2,7.6,1.1c3.7,1.4,5.8,4.2,7.2,7.8c3.5,8.8,7.2,17.5,10.8,26.2
	c2.9,7,5.8,14.1,8.8,21.1c0.2,0.4,0.4,0.8,0.5,1.2c0.1,0,0.3,0.1,0.4,0.1c2.2-5.3,4.4-10.5,6.4-15.8c2.4-6.2,4.8-12.4,7.1-18.6
	c0.9-2.3,1.7-4.7,2.4-7c0.4-1.2,1.1-1.5,2.2-1.3C232.5,0.5,233.8,0.4,235.2,0.4z"/>
<path d="M144.1,51.5c1-2.4,2-4.5,2.9-6.6c4.7-10.6,9.5-21.2,14.2-31.8c1.9-4.3,3.8-8.5,5.7-12.8c0.3-0.6,0.6-1.1,1.4-1
	c0.8,0,1.1,0.3,1.4,1c3.5,8.2,7,16.3,10.5,24.5c3,6.9,5.9,13.8,8.9,20.6c0.9,2.1,1.8,4.1,2.6,6.1c-1.9,0-3.8,0-5.6,0
	c-0.8,0-1.9,0.3-2.4-0.1c-0.6-0.4-0.6-1.5-0.9-2.2c-2.2-5.6-4.3-11.2-6.6-16.7c-0.1-0.4-0.7-0.7-1.1-0.7c-5.7,0-11.5,0-17.2,0
	c-0.8,0-1,0.4-1.2,1c-2.4,6.3-4.8,12.6-7.3,18.9C147.9,51.5,146.1,51.5,144.1,51.5z M158.6,28.1c5.4,0,10.6,0,16,0
	c-2.7-6.2-5.3-12.3-8.1-18.6C163.8,15.8,161.3,21.9,158.6,28.1z"/>
<path d="M261.2,51.5c-1.8,0-3.5,0-5.5,0c0.7-1.6,1.3-3.2,2-4.8c4.6-10.4,9.3-20.8,14-31.2c2.3-5.2,4.6-10.4,7-15.6
	c0.2-0.3,0.8-0.5,1.2-0.6c0.6-0.2,1.1,0,1.4,0.8c1.3,3,2.6,6,3.9,9c3.1,7.2,6.1,14.3,9.2,21.5c2.9,6.8,5.9,13.6,8.8,20.5
	c0.1,0.2,0.1,0.4,0.1,0.5c-1.9,0-3.7,0-5.5,0c-0.8,0-1.7,0.3-2.3,0c-0.5-0.4-0.6-1.4-0.9-2.1c-2.1-5.5-4.3-10.9-6.4-16.4
	c-0.4-1-0.9-1.4-2.1-1.4c-5.4,0.1-10.9,0.1-16.3,0c-0.8,0-1.2,0.2-1.5,1c-2.2,6.1-4.4,12.1-6.7,18.2C261.4,51,261.3,51.3,261.2,51.5
	z M270.2,28.1c5.4,0,10.6,0,16,0c-2.7-6.2-5.3-12.3-8.1-18.7C275.4,15.8,272.8,21.9,270.2,28.1z"/>
<path d="M53.5,51.5c-1.8,0-3.5,0-5.5,0c0.4-0.9,0.7-1.7,1-2.4c4.4-9.7,8.8-19.4,13.1-29.2C65,13.3,68,6.7,70.8,0.1
	c0.3-0.6,0.6-0.9,1.2-0.8c0.7,0,1.2,0.1,1.6,0.9c1.5,3.7,3.1,7.3,4.6,10.9c4.4,10.2,8.8,20.5,13.2,30.7c1.2,2.9,2.5,5.8,3.7,8.6
	c0.2,0.4,0.2,0.7,0.4,1.2c-1.4-0.1-2.6-0.2-3.9-0.2c-1.1,0-2.3,0.2-3.4,0.1c-0.4,0-0.9-0.5-1-0.9c-1.5-4-3-8.1-4.5-12.1
	c-0.8-2.1-1.8-4.1-2.6-6.2c-0.3-0.7-0.7-0.8-1.4-0.8c-5.6,0-11.2,0-16.8,0c-0.8,0-1.1,0.3-1.4,1c-2.2,6.1-4.4,12.1-6.7,18.2
	C53.8,51.1,53.6,51.3,53.5,51.5z M78.5,28.1c-2.7-6.2-5.4-12.3-8.1-18.7c-2.7,6.4-5.3,12.5-7.9,18.7C67.9,28.1,73.1,28.1,78.5,28.1z
	"/>
<path d="M242.1,51.4c0-16.9,0-33.9,0-51c0.5,0,1,0,1.5,0c1.1,0,2.3,0.1,3.4,0c1.7-0.1,1.9-0.1,1.9,1.7c0,14.3,0,28.7,0,43
	c0,1.9,0,3.7,0,5.6c0,0.7-0.1,1.1-0.9,1.1C246,51.6,244.1,51.5,242.1,51.4z"/>
<path d="M145.9,68.7c0,1.8,0,3.5,0,5.1c-1.2,0.4-1.6,0-1.6-1.2c0.1-3.9,0.1-7.8,0-11.6c0-1,0.3-1.3,1.3-1.3c1.9,0.1,3.8,0.2,5.7,0.2
	c2,0,2.9,1.3,3.3,3.1c0.5,2-0.1,5-2.3,5.5c-0.9,0.2-1.9,0.2-2.9,0.2C148.2,68.7,147.1,68.7,145.9,68.7z M145.9,67.3
	c1.7,0,3.2,0.1,4.7,0c1.1-0.1,1.9-0.9,2.1-2c0.3-1.7-0.2-3.3-1.3-3.9c-0.1-0.1-0.2-0.2-0.3-0.2c-1.7,0-3.5,0-5.2,0
	C145.9,63.4,145.9,65.2,145.9,67.3z"/>
<path d="M292,67.4c-0.4-2.2-1.5-3-3.6-2.6c-0.4,0.1-0.9,0.1-1.3,0.3c-1.2,0.5-1.2-0.3-1.3-1.2c1.9-0.5,3.8-0.8,5.7-0.2
	c1.1,0.4,1.8,1.2,1.8,2.5c0.1,1.7,0.2,3.4,0.2,5.1c0,2.2-0.2,2.5-2.3,2.7c-1.2,0.1-2.5,0.1-3.8,0c-1.5-0.1-2.3-1.3-2.4-3.1
	c0-2.2,0.7-3.3,2.3-3.5C289,67.3,290.5,67.4,292,67.4z M292,72.5c0.4-3.8,0.4-3.8-3.1-3.8c-0.1,0-0.3,0-0.4,0
	c-1.4-0.1-1.6,0.9-1.7,1.8c-0.1,1.2,0.5,2.1,1.6,2.1C289.6,72.7,290.8,72.5,292,72.5z"/>
<path d="M209.4,69c-2.4,0-4.7,0-7,0c-0.1,3.4,1.1,4,6.1,3.3c0.1,0.3,0.3,0.7,0.4,1.2c-1.9,0.7-3.8,0.9-5.6,0.4
	c-1.9-0.5-2.5-2.2-2.6-3.8c-0.1-1.3,0-2.7,0.3-4c0.4-1.6,1.7-2.5,3.4-2.6c0.8,0,1.7-0.1,2.5,0.1c1.5,0.4,2.4,1.7,2.5,3.4
	C209.5,67.5,209.4,68.2,209.4,69z M202.6,67.5c1.8,0,3.5,0,5.3,0c-0.3-2.2-0.9-2.8-2.8-2.8C203.2,64.8,202.5,65.6,202.6,67.5z"/>
<path d="M263,68.7c-0.1,0.8-0.1,1.6-0.3,2.3c-0.6,2.2-2.3,3.4-4.6,3.1c-1.7-0.2-3.5-0.4-4-2.4c-0.4-1.6-0.6-3.3-0.3-4.9
	c0.6-3.6,5-5,7.8-2.7c0.7,0.6,0.9,1.9,1.2,2.9C263.1,67.6,262.9,68.2,263,68.7L263,68.7z M261.4,68.7
	C261.3,68.7,261.3,68.7,261.4,68.7c0-0.5,0-1,0-1.5c-0.2-1.5-1-2.4-2.3-2.5c-1.7-0.2-3.1,0.3-3.3,1.4c-0.3,1-0.5,2.1-0.4,3.1
	c0.1,1.1,0.4,2.6,1.2,3c0.9,0.5,2.5,0.4,3.6,0.1c1.1-0.3,1.2-1.7,1.3-2.8C261.4,69.2,261.4,69,261.4,68.7z"/>
<path d="M181.9,68.7c0,0.6,0,1.2-0.1,1.8c-0.7,3.4-4.8,4.8-7.8,2.8c-1.8-1.2-2.1-8.1,0.2-9.4c1.2-0.7,4.8-0.9,6.1,0
	C181.8,65.2,181.9,66.9,181.9,68.7z M180.4,68.7c-0.1-0.8-0.2-1.5-0.4-2.2c-0.2-1.4-1.3-1.7-2.4-1.8c-1.2-0.1-2.7-0.1-3,1.4
	c-0.3,1.7-0.3,3.5,0,5.1c0.3,1.7,2,1.6,3.3,1.3c0.8-0.2,1.6-0.8,2-1.5C180.3,70.5,180.2,69.5,180.4,68.7z"/>
<path d="M230.5,73.8c0.2-0.7,0.3-1.1,0.4-1.5c1.4,0.1,2.7,0.2,4.1,0.3c1,0,1.5-0.5,1.5-1.5s-0.4-1.6-1.4-1.7
	c-0.7-0.1-1.5-0.2-2.2-0.3c-1.7-0.2-2.5-1.2-2.5-2.8c0-1.7,1.1-2.9,2.8-3c1.2-0.1,2.3,0.2,3.5,0.2c1.5,0.1,1.1,0.8,0.7,1.5
	c-1.1-0.2-2.2-0.4-3.3-0.4c-1.1-0.1-1.9,0.4-2.1,1.5c-0.2,0.7,0.9,1.5,2.1,1.6c0.6,0.1,1.3,0.2,1.9,0.2c1.7,0.2,2.4,1.4,2.3,3.1
	c0,1.8-0.9,2.7-2.8,2.8C233.9,74,232.3,73.9,230.5,73.8z"/>
<path d="M278.3,73.8c-1.3,0.3-1.6-0.1-1.6-1.2c0.1-1.7,0-3.4,0-5.2c0.1-2.4-1-2.8-3.3-2.8c-0.5,0-1.1,0.2-1.8,0.4c0,2.5,0,5,0,7.5
	c0,1.1-0.4,1.6-1.6,1.2c0-3,0-6,0-9.1c0-0.3,0.5-0.8,0.8-0.8c1.6-0.2,3.3-0.5,4.9-0.5c1.3,0,2.4,1.4,2.5,3.1
	C278.4,69,278.3,71.4,278.3,73.8z"/>
<path d="M223.2,64.9c-1.7,0-3,0-4.3,0c-0.9,0-1.3,0.8-1.2,1.4c0.1,0.5,0.7,1.1,1.2,1.3c0.9,0.3,1.9,0.4,2.9,0.6
	c1.2,0.2,2.2,1.1,2.1,3.1c-0.1,1.7-1,2.6-2.6,2.7c-1.7,0.1-3.3,0-5.3,0c0.3-0.9,0.4-1.3,0.5-1.7c1.3,0.1,2.6,0.2,3.8,0.3
	c1.1,0.1,1.8-0.5,1.9-1.6c0-0.9-0.6-1.6-1.7-1.6c-0.7,0-1.5-0.1-2.2-0.3c-1.5-0.3-2.4-1.4-2.4-2.7c0-1.6,1.2-3,2.8-3
	c1.2,0,2.3,0.2,3.5,0.2C223.9,63.7,223.6,64.4,223.2,64.9z"/>
<path d="M191.3,63.6c0.8,0,1.6,0,2.5,0c1-0.1,1.3,0.3,1,1.3c-1.1,0-2.3,0-3.5,0c0,3,0,5.9,0,8.8c-1.5,0.3-1.6,0.3-1.6-1.1
	c0-2.5,0-5,0-7.6c-0.5-0.1-1-0.1-1.5-0.2c0-0.4,0-0.8,0-1.2c0.5,0,0.9-0.1,1.4-0.1c0.7-4,2.9-5.4,5.9-3.7c-0.1,0.8-0.3,1.3-1.4,1
	C192,60.3,190.9,61.4,191.3,63.6z"/>
<path d="M302.4,59.5c0,3.9,0,7.7,0,11.5c0,0.5,0,1.2,0.3,1.5c0.9,1,0.2,1.4-0.8,2c-0.4-0.8-1-1.6-1.1-2.3c-0.1-4.2,0-8.3,0-12.6
	C301.4,59.5,301.8,59.5,302.4,59.5z"/>
<path d="M162.8,73.8c-1.1,0.3-1.6,0.1-1.6-1c0-2.7,0-5.5,0-8.2c0-0.3,0.3-0.9,0.6-0.9c1.3-0.2,2.5-0.3,3.8-0.3c0.4,0,1,0.4,1.1,0.7
	c0.2,0.8-0.5,0.8-1.1,0.8c-0.4,0-0.7,0-1.1,0c-1.1,0.1-1.8,0.5-1.7,1.8C162.8,69.1,162.8,71.4,162.8,73.8z"/>
<path d="M245.3,63.7c1.2-0.3,1.5,0.2,1.5,1.2c0,2.6,0,5.2,0,7.8c0,1.1-0.5,1.4-1.5,1.1C245.3,70.5,245.3,67.1,245.3,63.7z"/>
<path d="M246.6,61.7c-0.5-0.1-1.1-0.2-1.5-0.5c-0.2-0.1-0.1-0.8,0.1-1c0.2-0.3,0.9-0.5,1.1-0.3c0.4,0.3,0.5,0.9,0.8,1.3
	C246.9,61.4,246.7,61.5,246.6,61.7z"/>
</svg>
