<?xml version="1.0" encoding="utf-8"?>
<!-- Generator: Adobe Illustrator 19.0.1, SVG Export Plug-In . SVG Version: 6.00 Build 0)  -->
<svg version="1.1" id="Layer_1" xmlns="http://www.w3.org/2000/svg" xmlns:xlink="http://www.w3.org/1999/xlink" x="0px" y="0px"
	 viewBox="48 -77.1 255.1 255.1" style="enable-background:new 48 -77.1 255.1 255.1;" xml:space="preserve">
<g>
	<path d="M212.6-43c-4.2-0.7-10.5-0.3-11.5,1.4c-1.1,1.8-0.1,3.5,1.1,4.4c1.6,1.1,5,1.9,5,1.9c10.9,3.3,13.3,7,16.5,10.9
		c4.7,5.9,5.7,13,6.3,20.7l0.1,5c-0.4,14.1-4.5,32.1-10.9,44.3c-7.5,14.4-21.3,26-37.3,26c-20.9,0-29.5-18.3-29.5-38
		c0-14.7,3.9-31.1,10.6-43.7c7.2-14,24.6-39.5,45.6-42c4.4-0.5,5.2-0.4,6.3-0.8c1.2-0.4,1.6-1.3,1.4-2.8c-0.2-2.1-4.5-3.9-8.7-3.9
		c-39.7,0.6-72.2,43.7-74.3,89c-1.4,30.3,19.9,50.5,48.1,50.5c18.8,0,34.9-7.4,47.9-21.7c12.4-13.4,19.6-32.3,19.9-51.2
		c0.1-4.7,0.1-11.8-2.8-20.1c-3.4-9.9-7.7-16.8-14-21.6C232.5-34.8,226.9-40.6,212.6-43L212.6-43z"/>
	<path d="M147.3,89.8c14.8,0,19.9,8.4,19.9,15.2s-5.1,15.2-19.9,15.2s-19.9-8.4-19.9-15.2C127.5,98.2,132.5,89.8,147.3,89.8
		L147.3,89.8z M147.3,117c8.6,0,14.5-4.8,14.5-12s-5.9-12-14.5-12c-8.6,0-14.5,4.8-14.5,12S138.7,117,147.3,117L147.3,117z"/>
	<path d="M176.2,119.6h-5.1V90.7h17.4c11,0,13.4,3,13.4,7.7c0,3.5-3.1,6.2-8.1,6.7v0.1c4.7,0.5,6,2.1,6.9,6.9c0.6,3.1,1,5.7,2,7.5
		h-5.4c-0.9-2.1-1.5-6.1-2.4-9.3c-0.6-2.1-2.2-3.6-8.9-3.6h-9.9L176.2,119.6L176.2,119.6z M176.2,103.4h11.6c5.4,0,8.7-1.1,8.7-4.7
		c0-3.5-2.4-4.7-8.6-4.7h-11.7V103.4L176.2,103.4z"/>
	<polygon points="206.8,90.6 211.9,90.6 211.9,116.3 232.3,116.3 232.3,119.6 206.8,119.6 	"/>
	<polygon points="238.4,119.6 238.4,107.5 221.6,90.6 228.2,90.6 240.9,104.1 253.7,90.6 260.2,90.6 243.5,107.5 243.5,119.6 	"/>
	<path d="M259.2,118c-1,1.1-2.3,1.6-3.7,1.6c-1.5,0-2.7-0.5-3.7-1.6c-1-1-1.5-2.3-1.5-3.8c0-1.4,0.5-2.7,1.6-3.7
		c1-1,2.3-1.6,3.7-1.6c1.5,0,2.7,0.5,3.7,1.6c1,1,1.6,2.3,1.6,3.7C260.7,115.7,260.2,117,259.2,118L259.2,118z M252.1,111
		c-0.9,0.9-1.4,1.9-1.4,3.2c0,1.3,0.4,2.4,1.4,3.2c0.9,0.9,2,1.4,3.2,1.4c1.3,0,2.4-0.4,3.2-1.4c0.9-0.9,1.4-2,1.4-3.2
		c0-1.3-0.4-2.4-1.4-3.2c-0.9-0.9-2-1.4-3.2-1.4C254.1,109.7,253.1,110.2,252.1,111L252.1,111z M255.3,111.4c0.7,0,1.3,0.1,1.6,0.2
		c0.6,0.3,0.9,0.7,0.9,1.5c0,0.5-0.2,0.9-0.6,1.1c-0.2,0.1-0.5,0.2-0.9,0.3c0.4,0.1,0.8,0.3,1,0.6c0.2,0.3,0.3,0.6,0.3,0.9v0.4
		c0,0.1,0,0.3,0,0.4c0,0.1,0,0.3,0.1,0.3v0.1h-0.9v-0.1v-0.1v-0.2v-0.4c0-0.6-0.2-1.1-0.6-1.4c-0.2-0.1-0.6-0.2-1.1-0.2h-0.9v2.3h-1
		v-5.8H255.3L255.3,111.4z M256.4,112.3c-0.3-0.1-0.7-0.2-1.3-0.2h-0.9v2.1h0.9c0.4,0,0.8-0.1,1-0.1c0.4-0.1,0.6-0.4,0.6-0.9
		C256.8,112.7,256.6,112.4,256.4,112.3L256.4,112.3z"/>
</g>
</svg>
