<?xml version="1.0" encoding="utf-8"?>
<!-- Generator: Adobe Illustrator 19.0.1, SVG Export Plug-In . SVG Version: 6.00 Build 0)  -->
<svg version="1.1" id="Слой_1" xmlns="http://www.w3.org/2000/svg" xmlns:xlink="http://www.w3.org/1999/xlink" x="0px" y="0px"
	 viewBox="0 0 557.7 191.4" style="enable-background:new 0 0 557.7 191.4;" xml:space="preserve">
<style type="text/css">
	.st0{clip-path:url(#SVGID_2_);}
</style>
<g>
	<defs>
		<rect id="SVGID_1_" width="557.7" height="191.4"/>
	</defs>
	<clipPath id="SVGID_2_">
		<use xlink:href="#SVGID_1_"  style="overflow:visible;"/>
	</clipPath>
	<path class="st0" d="M502.3,36.6c-0.6,0.2-1.5,0.3-1.9,0.3c-4.8,0.6-6.4,0.8-10.2,1.7c-4.3,1-8.6,2.3-13.2,3.8
		c-2,0.7-7.4,2.7-9.3,3.8c-0.7,0.4-1.2,0.6-1.9,0.9c-2.2,0.9-2.9,0.3-3.6,0.5c-0.2,0.1-0.2,0.2-0.3,0.3c-0.1,0.3-0.1,0.7-0.3,0.9
		c-0.4,0.5-0.8,0.6-1.5,0.9c-0.6,0.2-2.5,1.2-3.1,1.7c-1,0.5-2.2,1.5-3.1,2.2c-0.8,0.6-1.8,0.8-2.6,1.4c-0.5,0.3-0.9,0.7-1.4,1
		c-0.9,0.7-1.7,1.5-2.5,2.2C432.2,71.5,441.5,85,463.6,84c12.3-0.6,22.5-3.4,36.8-8.2c0.6-0.2,2.2-0.8,2.6-0.6
		c0.4,0.2,1.3,0.2,2.2-0.5c0.4-0.3,0.9-0.8,1.2-1c2.6-2.1,5.6-0.8,7.6-3.3c1-0.7,2.2-0.3,3.4-0.5c0.5-0.1,0.9-0.3,1.3-0.9
		c0.3-0.3,0.4-0.9,0.9-1.1c0.4-0.1,0.7,0.2,0.9,0.3c0.8,0.2,1.3-0.6,2-0.9c1.1-0.3,1.7-0.7,2.8-1.1c2.1-0.8,4.2-1.8,6.2-2.7
		c2.1-1,4.2-2.1,6.3-3.4V18.1c0-9-7.4-16.3-16.5-16.3h-94.3c-9.1,0-16.5,7.3-16.5,16.3v93.3c0,9,7.4,16.3,16.5,16.3h94.3
		c9.1,0,16.5-7.3,16.5-16.3v-46c-0.7,0.1-1.6,0.2-2.2,0.7c-0.4,0.4-0.7,0.5-1,0.6c-0.6,0.3-1,0.5-1.3,1.1c0,0.1-0.1,0.3-0.2,0.4
		c-0.1,0.2-0.3,0.1-0.4,0.1c-0.2,0-0.3-0.1-0.5-0.2c-0.4-0.1-0.4,0.3-0.6,0.5c-0.3,0.3-0.6,0.6-0.8,0.8c-0.6,0.4-0.8,0.4-1.3,0.8
		c-0.5,0.3-0.5-0.5-2,0.7c-0.4,0.3-1,1-2.1,1.6c-0.6,0.3-1.4,0.1-2,0.6c-0.6,0.4-1.1,1.3-1.7,1.7c-0.8,0.5-1.4,0.6-1.7,0.7
		c-0.5,0.1-1.1,0.1-1.4,0.5c-0.5,0.7-1.3,1.3-1.2,1.7c0.2,0.7,1.7,0.4,2.1,0.2c0.7-0.5,1.5-0.7,2.2-1c0.7-0.3,1.5-0.3,2.2-0.8
		c0.3-0.2,0.7-0.7,0.9-0.8c0.8-0.4,1.4-0.3,1.7-0.4c0.7-0.2,1.8-1,2.2-1.2c1.7-0.9,1.3,0.3,0.6,1.2c-0.5,0.5-0.9,0.5-1.4,1
		c-0.4,0.5-0.5,1.4-1,1.7c-0.5,0.3-1-0.2-1.5,0c-0.7,0.3-1.3,1.2-2.2,1.7c-0.8,0.5-1.3,0.7-2.1,1c-0.1,0-0.3,0.1-0.6,0.1
		c-0.8,0.2-1.2,0.7-1.7,1.1c-0.3,0.2-0.6,0.4-1,0.4c-0.2,0-0.5,0-0.7-0.1c-0.1,0-0.3-0.1-0.4,0c-0.2,0.1-0.2,0.2-0.3,0.3
		c-0.2,0.1-0.3,0.3-0.5,0.4c-1.2,0.9-2.4,1.9-3.9,2.3c-0.7,0.2-1.4,0.3-2.2,0.3c-0.4,0-0.7,0-1.1-0.1c-0.2,0-0.4-0.1-0.6-0.2
		c-0.1,0-0.3,0.1-0.2,0.3c0.1,0.1,0.2,0.2,0.3,0.3c0.1,0.1,0.2,0.1,0.3,0.2c0.1,0.1,0,0.2-0.2,0.3c-0.2,0-1,0.3-1.3,0.5
		c-0.6,0.3-1.2,0.6-1.8,0.9c-1.1,0.6-2.3,1.4-3.6,1.5c-0.9,0-1.8-0.2-2.5-0.6c0.1,0.2,0.2,0.4,0.3,0.6c0.2,0.8-0.4,1-1.1,1.2
		c-0.4,0.1-0.7,0.1-1.1,0.3c-0.2,0.1-0.2,0.1-0.4,0.2c-0.1,0.1-0.2,0.2-0.3,0.2c-0.1,0.1-0.4,0.1-0.5,0c-0.2,0-0.3,0-0.5,0
		c-0.4,0-0.7-0.1-1.1-0.1c-0.6,0-1.2,0-1.7,0.2c-0.3,0.1-0.5,0.2-0.7,0.4c-0.1,0.1-0.2,0.2-0.3,0.3c0,0.1,0,0.2,0.1,0.3
		c0.1,0.2-0.3,0.3-0.4,0.4c-2.2,0.8-6.2,1.7-7.9,2c-0.2,0-0.5,0.1-0.6-0.1c-0.4-0.9-1.4-0.8-2.2-0.6c-0.4,0.1-0.8,0.2-1.2,0.3
		c-0.1,0-0.2,0.1-0.3,0.2c-0.1,0.1-0.2,0.3-0.4,0.4c-0.3,0.3-0.5,0.5-0.9,0.6c-1,0.6-2.2,0.8-3.4,0.9c-0.6,0.1-1.3,0.1-1.9,0.2
		c-0.3,0-0.5,0.1-0.8,0.1c-0.1,0-0.3,0.1-0.4,0.1c-0.1-0.1-0.1-0.2,0-0.3c0-0.5-0.4-0.6-0.8-0.7c-0.2,0-0.4-0.1-0.6-0.1
		c-0.1,0-0.2-0.1-0.4,0c-0.1,0.1-0.6,0.5-0.7,0.5c-0.3,0.2-0.5,0.4-0.9,0.6c-1.4,0.7-5.2,1.1-7,1.1c-1.9,0.1-3.9,0.1-7.7-0.4
		c-16.8-2.2-26.8-12.2-25.1-27.1c0.1-1.1,0.6-2.8,0.7-3.3c0.2-0.8,0.3-1.4,0.3-2.4c0-0.3,0-0.5,0.1-0.8c0.1-0.5,0.4-0.9,0.7-1.3
		c0.3-0.5,0.5-0.9,0.7-1.4c0.1-0.2,0.2-0.8,0.7-0.7c0.5,0.1,0.1,1.1,0.4,1.5c0.6,1,2.9-2.4,2-3.2c-0.1-0.1-0.3-0.2-0.5-0.2
		c-0.5-0.1-0.8-0.1-0.4-0.7c0.7-1.1,1.8-2.3,2.7-3.4c1.4-1.8,3.3-3.7,5.2-5.4c1.1-1,3.4-2.8,4.2-3.1c0.7-0.3,1.6-0.3,2.1-1.1
		c1-1.7,2.8-2.2,4.3-2.7c2.1-0.8,1.7-1,3.1-1.8c2.4-1.3,2.9-1.7,5.7-3c0.3-0.2,0.9-0.4,1,0.1c0,0.3-0.2,0.7,0.1,0.9
		c0.3,0.2,0.7-0.1,0.9-0.2c0.3-0.1,0.6-0.2,0.9,0.1c0.1,0.1,0.2,0.3,0.2,0.4c0.1,0.2,0.3,0.2,0.4,0c0.1-0.1,0.1-0.3,0.2-0.5
		c0.6-1.1,1.8-0.9,2.5-0.9c0.8,0,1.6-0.1,2.3-0.4c0.4-0.2,0.7-0.4,1-0.7c0.3-0.4,0.1-1-0.3-1c-0.5-0.1-1.1,0.4-1.5,0.6
		c-0.5,0.3-1,0.5-1.6,0.6c-0.3,0.1-1,0.1-1.1-0.3c-0.1-0.5,0.4-0.8,0.8-1c0.3-0.2,0.7-0.3,1.1-0.5c0.4-0.2,0.8-0.4,1.1-0.7
		c0.2-0.3,0.2-0.5,0.4-0.8c0.1-0.3,0.4-0.4,0.6-0.4c0.5-0.1,1,0,1.5,0c1.8,0.1,2.8-0.3,5.8-1.1c3.6-0.9,7.3-1.7,9.3-2.1
		c0.6-0.1,0.9-0.5,0-0.6c-0.6,0-0.9,0-1.2,0c-0.6,0-0.7-0.3,0.3-0.8c2.8-1.2,7.8-1.4,10-1.3c0.5,0,1.1,0.1,1.5,0.5
		c0.1,0.1,0.1,0.4,0.3,0.5c0.2,0.1,0.7,0.2,0.9,0.2c1.6,0,3.3,0.1,4.7,0.3c1.3,0.2,2.1,0.8,1.1,1.4c-1.1,0.7-1.3,1.2,0.4,1.5
		c1.2,0.2,2.1,0.3,2.7,0.5c1.4,0.5,1,1.2-0.2,1.4c-1,0.2-3,0.5-4,1c-0.4,0.2-1.1,0.5-0.6,1c0.5,0.5,1,0.6,1,1
		C503.1,36.1,503,36.4,502.3,36.6 M531.7,71.5c0.6-0.4,1.3-0.6,2-0.9c0.3-0.1,1.1-0.6,1.6-0.9c0.6-0.3,0.9-0.2,0.6,0.5
		c-0.3,0.5-1,0.7-1.3,1.1c-0.5,0.7-0.8,0.6-1.3,1c-0.9,0.7-1.7,1.4-2.3,0.7C530.6,72.5,531.1,71.9,531.7,71.5"/>
	<path class="st0" d="M550.6,114.5c-4,0-7.1,3.2-7.1,7.1c0,3.9,3.1,7.1,7.1,7.1c4,0,7.1-3.2,7.1-7.1
		C557.7,117.7,554.6,114.5,550.6,114.5 M550.6,127.7c-3.5,0-6-2.7-6-6.1c0-3.4,2.6-6.1,6.1-6.1c3.4,0,6,2.7,6,6.1
		C556.6,125,554,127.7,550.6,127.7"/>
	<path class="st0" d="M552.3,122.5c0.9-0.3,1.6-1.1,1.6-2.3c0-1.5-1.1-2.4-2.9-2.4h-3.2v7.3h1.6v-2.3h1.3l1.5,2.3h1.9L552.3,122.5z
		 M551,121.4h-1.6v-2.1h1.6c0.8,0,1.3,0.4,1.3,1.1C552.2,120.9,551.8,121.4,551,121.4"/>
	<path class="st0" d="M117.3,101.9c-11.8,12.9-29.1,20.2-47.4,20.2C35.7,122.1,7.8,96.5,7.8,65c0-31.5,27.8-57.2,62.1-57.2
		c16.5,0,32.1,5.9,43.8,16.6c1.6,1.4,4.1,1.3,5.5-0.3c1.4-1.6,1.3-4.1-0.2-5.5C105.8,6.6,88.4,0,69.9,0C31.4,0,0,29.1,0,65
		c0,35.8,31.4,65,69.9,65c20.5,0,39.9-8.3,53.1-22.8c0.7-0.8,1.1-1.8,1-2.8c0-1-0.5-2-1.3-2.7C121.2,100.2,118.7,100.3,117.3,101.9
		 M323,1.6h-44.3c-2.1,0-3.9,1.8-3.9,3.9v118.6c0,2.1,1.8,3.9,3.9,3.9c0,0,44,0,44,0c37.8,0,68.5-28.3,68.5-63
		C391.1,30.1,360.5,1.6,323,1.6 M323,120.5c0,0-38.6-0.2-40.4-0.2V9.5H323c33.3,0,60.3,24.9,60.3,55.5
		C383.3,95.6,356.2,120.5,323,120.5 M245.8,1.2c-2.2,0-3.9,1.8-3.9,3.9v108.4c-3.2-3.8-91.5-110.7-91.5-110.7
		c-1-1.3-2.8-1.7-4.3-1.2c-1.5,0.5-2.6,2-2.6,3.7v119c0,2.2,1.7,3.9,3.9,3.9c2.2,0,3.9-1.8,3.9-3.9V16.1
		c3.2,3.8,91.5,110.7,91.5,110.7c1,1.3,2.8,1.7,4.3,1.2c1.6-0.6,2.6-2.1,2.6-3.7V5.1C249.7,2.9,248,1.2,245.8,1.2"/>
	<polygon class="st0" points="380,127.6 378.5,127.6 378.5,116.3 374.3,116.3 374.3,115 384.2,115 384.2,116.3 380,116.3 	"/>
	<polygon class="st0" points="392.6,124.2 392.5,124.2 387.9,117.4 387.9,127.6 386.6,127.6 386.6,115 388,115 392.6,121.9 
		397.2,115 398.7,115 398.7,127.6 397.2,127.6 397.2,117.4 	"/>
	<polygon class="st0" points="16.7,174.8 16.7,185.7 14,185.7 14,161.5 16.7,161.5 16.7,172.3 30.7,172.3 30.7,161.5 33.4,161.5 
		33.4,185.7 30.7,185.7 30.7,174.8 	"/>
	<path class="st0" d="M40.9,171.3l-0.8-2.2c2-0.9,3.9-1.5,6.5-1.5c4.9,0,7.6,2.5,7.6,7.2v10.9h-2.6V183c-1.2,1.6-3.3,3.1-6.5,3.1
		c-3.3,0-6.7-1.9-6.7-5.6c0-3.8,3.1-5.8,7.6-5.8c2.3,0,3.9,0.3,5.5,0.8v-0.6c0-3.2-2-4.9-5.3-4.9C44.2,170,42.5,170.5,40.9,171.3
		 M41.2,180.4c0,2.3,2.1,3.6,4.5,3.6c3.3,0,6-2,6-4.8v-1.7c-1.3-0.4-3.1-0.8-5.3-0.8C43.1,176.7,41.2,178.1,41.2,180.4"/>
	<path class="st0" d="M62.5,185.7h-2.7v-17.9h2.7v3.1c1.2-1.9,3-3.5,6.1-3.5c4.3,0,6.8,2.9,6.8,7.2v11.1h-2.7v-10.4
		c0-3.3-1.8-5.4-4.9-5.4c-3.1,0-5.4,2.2-5.4,5.6V185.7z"/>
	<path class="st0" d="M95.5,185.7v-3.6c-1.5,2.1-3.6,4-6.9,4c-4.3,0-8.5-3.4-8.5-9.3c0-5.9,4.3-9.3,8.5-9.3c3.3,0,5.5,1.8,6.9,3.8
		v-10.8h2.7v25.3H95.5z M89.2,169.9c-3.5,0-6.3,2.6-6.3,6.9c0,4.3,2.9,7,6.3,7c3.3,0,6.5-2.8,6.5-7
		C95.6,172.6,92.5,169.9,89.2,169.9"/>
	<path class="st0" d="M110.1,186.1c-2.6,0-5.4-1-7.4-2.6l1.3-1.9c1.9,1.5,4.1,2.3,6.2,2.3c2.1,0,3.7-1.1,3.7-2.8v-0.1
		c0-1.8-2.1-2.5-4.5-3.2c-2.8-0.8-5.9-1.8-5.9-5.1v-0.1c0-3.1,2.6-5.1,6.1-5.1c2.2,0,4.6,0.8,6.4,2l-1.2,2c-1.7-1.1-3.6-1.7-5.3-1.7
		c-2.1,0-3.5,1.1-3.5,2.6v0.1c0,1.7,2.2,2.4,4.6,3.1c2.8,0.8,5.7,1.9,5.7,5.1v0.1C116.4,184.1,113.6,186.1,110.1,186.1"/>
	<rect x="121.1" y="182.1" class="st0" width="3.2" height="3.6"/>
	<polygon class="st0" points="155.8,164 141.1,164 141.1,172.7 154.2,172.7 154.2,175.2 141.1,175.2 141.1,185.7 138.4,185.7 
		138.4,161.5 155.8,161.5 	"/>
	<path class="st0" d="M168,183.8c2.5,0,4.2-1,5.6-2.5l1.7,1.5c-1.8,2-4,3.4-7.4,3.4c-4.9,0-8.9-3.8-8.9-9.3c0-5.2,3.6-9.3,8.6-9.3
		c5.3,0,8.3,4.2,8.3,9.5c0,0.2,0,0.5,0,0.8h-14.2C162.1,181.6,164.9,183.8,168,183.8 M173.2,175.8c-0.3-3.3-2.1-6.1-5.7-6.1
		c-3.1,0-5.5,2.6-5.8,6.1H173.2z"/>
	<path class="st0" d="M188.5,183.8c2.5,0,4.2-1,5.6-2.5l1.7,1.5c-1.8,2-4,3.4-7.4,3.4c-4.9,0-8.9-3.8-8.9-9.3c0-5.2,3.6-9.3,8.6-9.3
		c5.3,0,8.3,4.2,8.3,9.5c0,0.2,0,0.5,0,0.8h-14.2C182.6,181.6,185.3,183.8,188.5,183.8 M193.7,175.8c-0.3-3.3-2.1-6.1-5.7-6.1
		c-3.1,0-5.5,2.6-5.8,6.1H193.7z"/>
	<path class="st0" d="M204.7,180.6c0,2.2,1.2,3,3,3c0.9,0,1.7-0.2,2.6-0.6v2.3c-0.9,0.5-1.9,0.8-3.2,0.8c-2.9,0-5.1-1.4-5.1-5.1
		v-10.8h-2.5v-2.4h2.5v-5.4h2.7v5.4h5.7v2.4h-5.7V180.6z"/>
	<rect x="214.8" y="182.1" class="st0" width="3.2" height="3.6"/>
	<path class="st0" d="M250.3,167.6c0,3.2-1.9,4.8-3.8,5.6c2.9,0.9,5.2,2.5,5.2,5.9c0,4.2-3.5,6.6-8.8,6.6h-10.8v-24.2h10.3
		C247.2,161.5,250.3,163.9,250.3,167.6 M247.5,167.9c0-2.4-1.9-4-5.4-4h-7.4v8.3h7.2C245.2,172.3,247.5,170.8,247.5,167.9
		 M248.9,178.9c0-2.7-2.2-4.2-6.4-4.2h-7.6v8.5h8.1C246.6,183.3,248.9,181.6,248.9,178.9"/>
	<path class="st0" d="M264.5,183.8c2.5,0,4.2-1,5.6-2.5l1.7,1.5c-1.8,2-4,3.4-7.4,3.4c-4.9,0-8.9-3.8-8.9-9.3c0-5.2,3.6-9.3,8.6-9.3
		c5.3,0,8.3,4.2,8.3,9.5c0,0.2,0,0.5,0,0.8h-14.2C258.6,181.6,261.3,183.8,264.5,183.8 M269.7,175.8c-0.3-3.3-2.1-6.1-5.7-6.1
		c-3.1,0-5.5,2.6-5.8,6.1H269.7z"/>
	<path class="st0" d="M278.1,171.3l-0.8-2.2c2-0.9,3.9-1.5,6.5-1.5c4.9,0,7.6,2.5,7.6,7.2v10.9h-2.6V183c-1.2,1.6-3.3,3.1-6.5,3.1
		c-3.3,0-6.7-1.9-6.7-5.6c0-3.8,3.1-5.8,7.6-5.8c2.3,0,3.9,0.3,5.5,0.8v-0.6c0-3.2-2-4.9-5.3-4.9C281.4,170,279.8,170.5,278.1,171.3
		 M278.4,180.4c0,2.3,2.1,3.6,4.5,3.6c3.3,0,6-2,6-4.8v-1.7c-1.3-0.4-3.1-0.8-5.3-0.8C280.3,176.7,278.4,178.1,278.4,180.4"/>
	<path class="st0" d="M309.8,167.8h2.6v17.9h-2.6v-3.1c-1.2,1.9-3,3.5-6.1,3.5c-4.3,0-6.9-2.9-6.9-7.2v-11.1h2.7v10.4
		c0,3.3,1.8,5.4,5,5.4c3,0,5.4-2.3,5.4-5.6V167.8z"/>
	<path class="st0" d="M322,180.6c0,2.2,1.2,3,3,3c0.9,0,1.7-0.2,2.6-0.6v2.3c-0.9,0.5-1.9,0.8-3.2,0.8c-2.9,0-5.1-1.4-5.1-5.1v-10.8
		h-2.5v-2.4h2.5v-5.4h2.7v5.4h5.7v2.4H322V180.6z"/>
	<path class="st0" d="M341.1,186.3c-1.5,3.7-3.2,5.1-6,5.1c-1.5,0-2.6-0.3-3.8-0.9l0.9-2.1c0.9,0.5,1.7,0.7,2.8,0.7
		c1.6,0,2.6-0.8,3.7-3.4l-8.1-17.8h2.9l6.5,14.9l5.7-14.9h2.8L341.1,186.3z"/>
	<rect x="347.8" y="182.1" class="st0" width="3.2" height="3.6"/>
</g>
</svg>
