<?xml version="1.0" encoding="utf-8"?>
<!-- Generator: Adobe Illustrator 19.0.1, SVG Export Plug-In . SVG Version: 6.00 Build 0)  -->
<svg version="1.1" id="Слой_1" xmlns="http://www.w3.org/2000/svg" xmlns:xlink="http://www.w3.org/1999/xlink" x="0px" y="0px"
	 viewBox="0 0 140 140" style="enable-background:new 0 0 140 140;" xml:space="preserve">
<style type="text/css">
	.st0{fill:#ffffff;}
</style>
<g>
	<path class="st0" d="M112.7,4.2c-0.3-0.9-1.9-2.2-3.4-1.9C84.6,7.1,68.5,33.6,54.3,62.6c-0.4,0.8-1,2.2-1.6,3.3
		c-0.6,1.2-1.2,2.5-1.8,3.8c-1.6,1.6-3.2,3.2-4.8,4.9C32.3,88.5,23.4,94.9,8.4,115C3,122.2-0.1,129.4,0,133c0.3,5.8,5.8,6.1,9.9,4.7
		c0.2-0.1,0.4-0.2,0.6-0.2c20.4-6,33.8-32.4,48.1-67.4c5-4.7,9.9-10.2,14.2-14.8c-4.5,9.8-11.7,26.7-11.3,37.2
		c0.2,4.7,3.4,8.8,5.7,8.7c7.2-0.5,15.4-15,22.6-30.3c-2.9,7.3-5.2,14.6-4,21.4c1.3,7.2,7,10.4,12.1,9.4c1.9-0.3,2.4-1,2.3-1.3
		c-0.1-0.3-0.3-0.5-0.8-0.4c-2.5,0.4-6.1-0.3-6.9-4.7c-2.5-13.7,16.5-50.6,15.4-56.4c-0.5-2.6-5-6-5.7-5.8c-0.4,0.1-0.5,0.3-0.4,0.8
		c0.5,2.7-4.7,16.6-4.6,16.4c0,0.1-1.3,3.7-2.8,6.5c-8,19.1-19.5,40.7-25.8,40.9c-1.2,0-2.2-1.4-2.3-3.7
		C66,81.4,73.9,64.9,79.6,48.7c0.1-0.1,8.6-9.3,11.6-13.7c3.3-4.7,5.1-9.6,3-12.2c-0.6-0.7-1.4-1-2.2-0.9c-2.2,0.1-5.6,5.3-7.4,8
		c-3.2,4.8-4.9,8.8-8.6,17.2c-0.2,0.6-0.9,1.7-1.2,2.3c-6.7,6.9-8.4,9.4-13.9,14.9c0.2-0.5,0.3-0.5,0.4-1c0,0,4.9-11.9,5.7-13.1
		c10.8-23,24.8-42.8,41.4-46c1-0.2,3.6,0.3,3.8,0.3C112.4,4.6,112.9,4.6,112.7,4.2z M6.6,136.9C6.6,136.9,6.6,136.9,6.6,136.9
		c-0.3,0.1-0.7,0.1-1.1,0.1c-0.9-0.1-3.3-1.1-2.5-4.5c1.8-7.3,9.5-17.2,12.3-21c6.7-9.2,12.1-15,18.5-21.5c4.6-4.7,9.3-9.2,14-13.8
		C34.5,105,21.2,133.8,6.6,136.9z M86.7,30.2c1.3-2.5,2.4-3.9,2.6-4.3c1.2-1.8,2.5-3.2,3.6-3c4,1-2.6,11.6-6.6,15.7
		c-1.7,1.8-6.2,6.6-6.6,6.9C81.5,40.5,84.5,34.2,86.7,30.2z"/>
	<path class="st0" d="M87.6,6c0.4-0.2,0.2-0.8-0.3-0.8c-4,0.2-8,0.7-12.2,1.7c-34.6,8.2-62.3,41.9-61.8,75.4c0.1,4.6,0.7,9,1.7,13.1
		c-0.3-2.4-0.5-5-0.6-7.6C14,54,40.4,19.8,73.4,11.6c2.8-0.7,7.8-1.4,8.2-1.5C82.4,10,85,7,87.6,6z"/>
	<path class="st0" d="M140,51.6c-0.2-18.7-9.7-33.3-24.3-40.8c-0.4-0.2-1-0.2-1.4,0c-1.5,0.7-3.5,1.5-4.9,2.1
		c-0.5,0.2-0.5,0.9,0,1.1c15.4,7.1,25.7,22.5,25.9,42.7c0.2,11.6-3,23.1-8.5,33.7c-0.2,0.3,0.3,0.6,0.5,0.3
		C135.5,78.9,140.2,65.2,140,51.6z"/>
	<path class="st0" d="M78.1,123.7c-13.8,3-26.1,2.6-36.9-2.5c-0.4-0.4-1.4,2.3-2.2,3.5c-0.3,0.4-0.1,0.9,0.3,1.1
		c10.3,5.1,23.5,6.8,37.1,3.6c19.8-4.6,37.2-17.8,47.8-34.5C113,108.9,96.5,119.7,78.1,123.7z"/>
</g>
</svg>
